<svg width="0" height="0" style="position:absolute">
    <defs>
        <!-- Pixel cat (16x16) -->
        <symbol id="px-cat" viewBox="0 0 16 16">
            <defs>
                <!-- Define a mask for transparent eyes -->
                <mask id="cat-eye-mask">
                    <!-- White areas will be visible, black areas will be transparent -->
                    <rect x="0" y="0" width="16" height="16" fill="white"/>
                    <!-- Cut out eye holes -->
                    <rect x="5" y="6" width="2" height="2" fill="black"/>
                    <rect x="9" y="6" width="2" height="2" fill="black"/>
                </mask>
            </defs>
            <g fill="currentColor" shape-rendering="crispEdges" mask="url(#cat-eye-mask)">
                <!-- outer ears -->
                <rect x="3" y="1" width="2" height="2"/>
                <rect x="11" y="1" width="2" height="2"/>
                <!-- inner ears -->
                <rect x="4" y="2" width="1" height="1"/>
                <rect x="11" y="2" width="1" height="1"/>
                <!-- head outline -->
                <rect x="2" y="3" width="12" height="9"/>
                <!-- face (eyes will be cut out by mask) -->
                <rect x="3" y="4" width="10" height="7"/>
                <!-- nose -->
                <rect x="7" y="8" width="2" height="1"/>
                <!-- mouth -->
                <rect x="6" y="9" width="1" height="1"/>
                <rect x="9" y="9" width="1" height="1"/>
                <rect x="7" y="10" width="2" height="1"/>
                <!-- whiskers -->
                <rect x="1" y="7" width="2" height="1"/>
                <rect x="13" y="7" width="2" height="1"/>
                <rect x="1" y="9" width="2" height="1"/>
                <rect x="13" y="9" width="2" height="1"/>
                <!-- chin -->
                <rect x="5" y="11" width="6" height="1"/>
            </g>
        </symbol>

        <!-- Email icon -->
        <symbol id="px-email" viewBox="0 0 16 16">
            <g fill="currentColor" shape-rendering="crispEdges">
                <svg fill="none" xmlns="http://www.w3.org/2000/svg" viewBox="0 0 24 24"> <path d="M22 4H2v16h20V4zM4 18V6h16v12H4zM8 8H6v2h2v2h2v2h4v-2h2v-2h2V8h-2v2h-2v2h-4v-2H8V8z" fill="currentColor"/> </svg>
            </g>
        </symbol>

        <!-- GitHub icon -->
        <symbol id="px-github" viewBox="0 0 16 16">
            <svg xmlns="http://www.w3.org/2000/svg" viewBox="0 0 24 24"> <path fill="currentColor" d="M6 2h12v2H6V2Zm4 12H8v-2h2v2Zm4 0v2h-4v-2h4Zm0 0v-2h2v2h-2Z"/> <path fill="currentColor" d="M6 6V4H4v2H2v12h2v2h2v2h12v-2h2v-2h2V6h-2V4h-2v2h-2v2H8V6H6Zm2 6v-2h8v2h2V6h2v12h-2v2h-2v-4h-2v4h-4v-4H6v2h2v2H6v-2H4v-2h2v-2H4V6h2v6h2Z"/> </svg>
        </symbol>

        <!-- Google Scholar icon -->
        <symbol id="px-scholar" viewBox="0 0 16 16">
            <g fill="currentColor" shape-rendering="crispEdges">
                <svg fill="none" xmlns="http://www.w3.org/2000/svg" viewBox="0 0 24 24"> <path d="M3 3h18v18H3V3zm16 16V5H5v14h14zM14 7h-4v4h4V7zm1 6H9v2H7v2h2v-2h6v2h2v-2h-2v-2z" fill="currentColor"/> </svg>
            </g>
        </symbol>

        <!-- CV/Resume icon -->
        <symbol id="px-cv" viewBox="0 0 16 16">
            <g fill="currentColor" shape-rendering="crispEdges">
                <svg fill="none" xmlns="http://www.w3.org/2000/svg" viewBox="0 0 24 24"> <path d="M3 3h18v18H3V3zm16 2H5v14h14V5zM7 12h2v5H7v-5zm10-5h-2v10h2V7zm-6 3h2v2h-2v-2zm2 4h-2v3h2v-3z" fill="currentColor"/> </svg>
            </g>
        </symbol>

        <!-- Pixel sparkle icon -->
        <symbol id="px-sparkle" viewBox="0 0 16 16">
            <g fill="currentColor" shape-rendering="crispEdges">
                <rect x="7" y="0" width="2" height="3"/>
                <rect x="7" y="13" width="2" height="3"/>
                <rect x="0" y="7" width="3" height="2"/>
                <rect x="13" y="7" width="3" height="2"/>
                <rect x="5" y="5" width="6" height="6"/>
            </g>
        </symbol>
        
        <!-- Pixel sun icon -->
        <symbol id="px-sun" viewBox="0 0 16 16">
            <g fill="currentColor" shape-rendering="crispEdges">
                <!-- Center -->
                <rect x="6" y="6" width="4" height="4"/>
                <!-- Rays -->
                <rect x="7" y="0" width="2" height="2"/>
                <rect x="7" y="14" width="2" height="2"/>
                <rect x="0" y="7" width="2" height="2"/>
                <rect x="14" y="7" width="2" height="2"/>
                <!-- Diagonal rays -->
                <rect x="2" y="2" width="2" height="2"/>
                <rect x="12" y="2" width="2" height="2"/>
                <rect x="2" y="12" width="2" height="2"/>
                <rect x="12" y="12" width="2" height="2"/>
            </g>
        </symbol>
        
        <!-- Pixel moon icon -->
        <symbol id="px-moon" viewBox="0 0 16 16">
            <g fill="currentColor" shape-rendering="crispEdges">
                <!-- Moon crescent -->
                <rect x="4" y="2" width="8" height="2"/>
                <rect x="2" y="4" width="10" height="2"/>
                <rect x="2" y="6" width="8" height="2"/>
                <rect x="2" y="8" width="6" height="2"/>
                <rect x="2" y="10" width="8" height="2"/>
                <rect x="4" y="12" width="6" height="2"/>
                <!-- Stars -->
                <rect x="12" y="3" width="1" height="1"/>
                <rect x="14" y="5" width="1" height="1"/>
                <rect x="13" y="8" width="1" height="1"/>
            </g>
        </symbol>
        
        <!-- Pixel star icon -->
        <symbol id="px-star" viewBox="0 0 16 16">
           <g fill="currentColor" shape-rendering="crispEdges">
                <rect x="7" y="0" width="2" height="3"/>
                <rect x="7" y="13" width="2" height="3"/>
                <rect x="0" y="7" width="3" height="2"/>
                <rect x="13" y="7" width="3" height="2"/>
                <rect x="5" y="5" width="6" height="6"/>
            </g>
        </symbol>

        <!-- Pixel heart icon -->
        <symbol id="px-heart" viewBox="0 0 16 16">
            <g fill="currentColor" shape-rendering="crispEdges">
                <rect x="2" y="2" width="4" height="2"/>
                <rect x="10" y="2" width="4" height="2"/>
                <rect x="1" y="4" width="6" height="2"/>
                <rect x="9" y="4" width="6" height="2"/>
                <rect x="2" y="6" width="12" height="2"/>
                <rect x="3" y="8" width="10" height="2"/>
                <rect x="4" y="10" width="8" height="2"/>
                <rect x="5" y="12" width="6" height="2"/>
                <rect x="6" y="14" width="4" height="2"/>
                <rect x="7" y="16" width="2" height="2"/>
            </g>
        </symbol>
        
        <!-- Pixel triangle (expand indicator) -->
        <symbol id="px-triangle" viewBox="0 0 12 12">
            <g fill="currentColor" shape-rendering="crispEdges">
                <rect x="2" y="2" width="2" height="2"/>
                <rect x="2" y="4" width="2" height="2"/>
                <rect x="4" y="4" width="2" height="2"/>
                <rect x="2" y="6" width="2" height="2"/>
                <rect x="4" y="6" width="2" height="2"/>
                <rect x="6" y="6" width="2" height="2"/>
                <rect x="2" y="8" width="2" height="2"/>
                <rect x="4" y="8" width="2" height="2"/>
                <rect x="2" y="10" width="2" height="2"/>
            </g>
        </symbol>
        
        <!-- Game controller icon -->
        <symbol id="px-dino" viewBox="0 0 24 24">
            <g fill="currentColor" shape-rendering="crispEdges">
                <rect x="8" y="6" width="8" height="6" fill="#535353"/>
                <rect x="6" y="12" width="12" height="6" fill="#535353"/>
                <rect x="4" y="18" width="4" height="2" fill="#535353"/>
                <rect x="16" y="18" width="4" height="2" fill="#535353"/>
                <rect x="10" y="8" width="2" height="2" fill="white"/>
                <rect x="14" y="8" width="2" height="2" fill="white"/>
                <rect x="16" y="10" width="2" height="2" fill="#535353"/>
                <rect x="2" y="14" width="4" height="2" fill="#535353"/>
            </g>
        </symbol>
        
        <!-- Strategy/Map icon -->
        <symbol id="px-gen" viewBox="0 0 24 24">
            <g fill="currentColor" shape-rendering="crispEdges">
                <path d="M4 20 L4 9 L8 13 L12 7 L16 13 L20 9 L20 20 Z" />
                    <!-- 中央小门 -->
                    <rect x="10" y="15" width="4" height="5" />
                    <!-- 两侧旗帜 -->
                    <line x1="8" y1="9" x2="8" y2="6" />
                    <line x1="16" y1="9" x2="16" y2="6" />
            </g>
        </symbol>
        
        <!-- Bullet hell icon -->
        <symbol id="px-touhou" viewBox="0 0 16 16">
            <g fill="currentColor" shape-rendering="crispEdges">
                <!-- Player -->
                <rect x="7" y="12" width="2" height="2"/>
                <rect x="6" y="13" width="4" height="1"/>
                <!-- Bullets -->
                <rect x="3" y="2" width="1" height="1"/>
                <rect x="7" y="1" width="1" height="1"/>
                <rect x="11" y="3" width="1" height="1"/>
                <rect x="1" y="5" width="1" height="1"/>
                <rect x="13" y="6" width="1" height="1"/>
                <rect x="5" y="4" width="1" height="1"/>
                <rect x="9" y="5" width="1" height="1"/>
                <rect x="2" y="8" width="1" height="1"/>
                <rect x="12" y="9" width="1" height="1"/>
                <rect x="6" y="7" width="1" height="1"/>
                <rect x="10" y="8" width="1" height="1"/>
            </g>
        </symbol>
        <!-- Pixel pumpkin icon (cat-style) -->
        <symbol id="px-pumpkin" viewBox="0 0 16 16">
            <g fill="currentColor" shape-rendering="crispEdges">
            <!-- stem -->
            <rect x="7" y="1" width="2" height="2"/>
            <rect x="8" y="0" width="1" height="1"/>
            <!-- pumpkin body (rounder, cat-style) -->
            <rect x="2" y="3" width="12" height="9"/>
            <rect x="3" y="4" width="10" height="7"/>
            <!-- vertical ribs -->
            <rect x="5" y="4" width="1" height="7"/>
            <rect x="10" y="4" width="1" height="7"/>
            <!-- cheeks -->
            <rect x="3" y="9" width="2" height="1"/>
            <rect x="11" y="9" width="2" height="1"/>
            <!-- eyes (triangle style) -->
            <rect x="5" y="6" width="2" height="2"/>
            <rect x="9" y="6" width="2" height="2"/>
            <!-- nose (triangle) -->
            <rect x="7" y="8" width="2" height="1"/>
            <!-- mouth (zigzag) -->
            <rect x="6" y="10" width="1" height="1"/>
            <rect x="9" y="10" width="1" height="1"/>
            <rect x="7" y="11" width="2" height="1"/>
            <!-- chin -->
            <rect x="6" y="12" width="4" height="1"/>
            </g>
        </symbol>
    </defs>
</svg>
